<svg width="95" height="20" viewBox="0 0 95 20" fill="none" xmlns="http://www.w3.org/2000/svg">
<g clip-path="url(#clip0)">
<path d="M40.9648 19.6082H36.6396L31.3916 13.2521V19.6082H27.6719V0.0078125H31.3916V11.768L36.3512 5.60794H40.7918L34.996 12.524L40.9648 19.6082Z" fill="#40196D"/>
<path d="M50.6192 5.60742H54.3389V19.6077H50.6192V18.0397C49.7157 19.3464 48.2836 19.9997 46.3228 19.9997C44.7465 19.9997 43.4393 19.4864 42.4012 18.4597C41.3824 17.433 40.873 16.0143 40.873 14.2036V5.60742H44.5927V13.7556C44.5927 14.6889 44.8523 15.4076 45.3713 15.9116C45.8903 16.397 46.5823 16.6396 47.4473 16.6396C48.4085 16.6396 49.1775 16.3503 49.7542 15.7716C50.3309 15.1929 50.6192 14.3249 50.6192 13.1676V5.60742Z" fill="#40196D"/>
<path d="M67.5215 0.0078125H71.2412V19.6082H67.5215V17.9562C66.4257 19.3189 64.8687 20.0002 62.8502 20.0002C60.9087 20.0002 59.2458 19.2909 57.8618 17.8722C56.4969 16.4348 55.8145 14.6801 55.8145 12.608C55.8145 10.536 56.4969 8.79067 57.8618 7.37197C59.2458 5.93461 60.9087 5.21593 62.8502 5.21593C64.8687 5.21593 66.4257 5.89727 67.5215 7.25997V0.0078125ZM60.6588 15.4641C61.4277 16.1921 62.3889 16.5561 63.5423 16.5561C64.6957 16.5561 65.6472 16.1921 66.3969 15.4641C67.1466 14.7174 67.5215 13.7654 67.5215 12.608C67.5215 11.4507 67.1466 10.508 66.3969 9.78002C65.6472 9.03334 64.6957 8.66 63.5423 8.66C62.3889 8.66 61.4277 9.03334 60.6588 9.78002C59.909 10.508 59.5342 11.4507 59.5342 12.608C59.5342 13.7654 59.909 14.7174 60.6588 15.4641Z" fill="#40196D"/>
<path d="M84.4472 5.60783H88.1669V19.6081H84.4472V17.9561C83.3322 19.3188 81.7655 20.0001 79.7471 20.0001C77.8247 20.0001 76.1715 19.2908 74.7874 17.8721C73.4226 16.4347 72.7402 14.68 72.7402 12.6079C72.7402 10.5359 73.4226 8.79056 74.7874 7.37186C76.1715 5.9345 77.8247 5.21582 79.7471 5.21582C81.7655 5.21582 83.3322 5.89716 84.4472 7.25986V5.60783ZM77.5844 15.464C78.3341 16.192 79.2857 16.556 80.4391 16.556C81.5925 16.556 82.5441 16.192 83.2938 15.464C84.0627 14.7173 84.4472 13.7653 84.4472 12.6079C84.4472 11.4506 84.0627 10.5079 83.2938 9.77991C82.5441 9.03323 81.5925 8.65989 80.4391 8.65989C79.2857 8.65989 78.3341 9.03323 77.5844 9.77991C76.8347 10.5079 76.4599 11.4506 76.4599 12.6079C76.4599 13.7653 76.8347 14.7173 77.5844 15.464Z" fill="#40196D"/>
<path d="M94.2787 19.272C93.7981 19.7387 93.2214 19.972 92.5486 19.972C91.8758 19.972 91.2991 19.7387 90.8185 19.272C90.3379 18.8053 90.0977 18.2453 90.0977 17.5919C90.0977 16.9386 90.3379 16.3786 90.8185 15.9119C91.2991 15.4452 91.8758 15.2119 92.5486 15.2119C93.2214 15.2119 93.7981 15.4452 94.2787 15.9119C94.7593 16.3786 94.9996 16.9386 94.9996 17.5919C94.9996 18.2453 94.7593 18.8053 94.2787 19.272Z" fill="#40196D"/>
<path d="M14.0472 0H18.6016L10.9195 9.804L18.6016 19.608H14.0472L6.36523 9.804L14.0472 0Z" fill="#40196D"/>
<path d="M8.55943 0H11.742L6.25482 9.804L11.742 19.608H8.55943L3.07227 9.804L8.55943 0Z" fill="#40196D"/>
<path d="M5.26771 0H7.07847L2.9631 9.804L7.07847 19.608H5.26771L1.15234 9.804L5.26771 0Z" fill="#40196D"/>
<path d="M0 0H1.01512V19.608H0V0Z" fill="#40196D"/>
</g>
<defs>
<clipPath id="clip0">
<rect width="95" height="20" fill="white"/>
</clipPath>
</defs>
</svg>
