<svg width="732" height="513" viewBox="0 0 732 513" fill="none" xmlns="http://www.w3.org/2000/svg">
<path opacity="0.1" d="M75 496L355 97H422.5L731.5 496H75Z" fill="url(#paint0_linear)"/>
<path d="M504.856 1H275.322V487.136H504.856V1Z" stroke="#48D38A" stroke-width="2" stroke-miterlimit="10"/>
<path d="M522.635 284.524L528.129 264.617L538.129 262.519L538.839 263.198L533.53 285.573L522.635 284.524Z" fill="black"/>
<path d="M596.615 285.202C606.518 285.202 614.547 277.174 614.547 267.271C614.547 257.368 606.518 249.34 596.615 249.34C586.712 249.34 578.684 257.368 578.684 267.271C578.684 277.174 586.712 285.202 596.615 285.202Z" fill="#48D38A"/>
<path d="M596.615 291.591C585.906 291.591 576.307 284.431 573.283 274.154L559.302 267.456C559.24 267.426 559.178 267.364 559.178 267.271C559.178 267.179 559.209 267.117 559.302 267.086L573.283 260.389C576.307 250.112 585.875 242.952 596.615 242.952C610.01 242.952 620.935 253.846 620.935 267.271C620.935 280.666 610.04 291.591 596.615 291.591ZM559.888 267.271L573.56 273.814C573.622 273.845 573.653 273.876 573.684 273.938C576.616 284.091 586.06 291.159 596.646 291.159C609.824 291.159 620.534 280.45 620.534 267.271C620.534 254.093 609.824 243.384 596.646 243.384C586.091 243.384 576.647 250.451 573.684 260.605C573.653 260.667 573.622 260.698 573.56 260.728L559.888 267.271Z" fill="#40196D"/>
<path d="M592.972 273.784C592.911 273.784 592.88 273.753 592.818 273.722L587.54 268.444C587.448 268.352 587.448 268.228 587.54 268.167C587.633 268.074 587.756 268.074 587.818 268.167L592.941 273.29L605.41 260.821C605.503 260.729 605.626 260.729 605.688 260.821C605.78 260.914 605.78 261.037 605.688 261.099L593.096 273.691C593.065 273.753 593.003 273.784 592.972 273.784Z" fill="#40196D"/>
<path d="M539.701 503.502H575.965V500.416H539.701V503.502Z" fill="#40196D"/>
<path d="M540.474 491.797C539.981 493.649 539.734 495.563 539.734 497.569V500.439H575.998C575.998 498.124 574.578 496.025 572.387 495.223L558.097 489.544L560.196 486.643C561.122 485.378 560.628 483.588 559.208 482.94C558.221 482.508 557.079 482.94 556.647 483.927C553.838 490.038 547.048 493.371 540.474 491.797Z" fill="#48D38A"/>
<path d="M551.462 489.884L561.986 500.408H554.27L545.875 492.013C547.881 491.705 549.795 490.964 551.462 489.884Z" fill="white"/>
<path d="M556.616 483.896C553.807 490.038 547.048 493.371 540.474 491.797L537.82 460.194H557.727L556.616 483.896Z" fill="#9C7ACD"/>
<path d="M449.428 235.174C449.428 235.174 385.233 248.692 387.578 318.751C387.578 318.751 388.843 388.624 437.514 413.9C437.514 413.9 484.55 442.356 554.084 405.691C453.193 375.291 487.883 331.589 487.883 331.589L466.803 232.304L449.428 235.174Z" fill="black"/>
<path d="M449.368 275.944C449.368 275.944 422.517 284.431 434.368 315.263C440.171 330.386 461.096 343.564 475.91 344.058C490.724 344.552 496.65 365.785 496.65 365.785C496.65 365.785 501.588 388.994 487.268 394.457C472.947 399.919 475.91 416.678 475.91 416.678C480.354 421.616 484.305 423.591 484.305 423.591C484.305 423.591 398.32 435.442 384.494 323.287C384.494 323.287 382.549 295.665 397.641 270.018C422.826 223.138 447.331 238.693 452.146 238.415C468.75 237.396 480.601 275.82 474.799 287.209C471.774 293.196 463.534 274.37 449.368 275.944Z" fill="#FFC83E"/>
<path d="M469.83 261.685L471.435 272.919L479.027 274.123C479.027 274.123 486.064 277.518 487.175 287.703C487.175 287.703 496.372 301.498 497.051 304.801C497.73 308.103 498.625 314.769 498.625 314.769C498.625 314.769 488.934 359.674 495.23 365.97C495.23 365.97 469.244 388.932 461.898 399.024L431.344 388.932L443.473 341.219L432.609 295.542C432.609 295.542 429.06 285.45 437.918 280.913L444.893 277.549L449.954 272.24L457.67 256.13L469.83 261.685Z" fill="#9C7ACD"/>
<path d="M440.416 279.061C440.416 279.061 451.526 277.179 456.125 284.74C460.723 292.332 471.556 296.097 475.353 293.659C479.149 291.221 484.827 290.789 476.71 278.845L471.464 272.92L475.815 273.629L485.506 286.16L495.197 301.653C495.197 301.653 497.42 304.832 497.821 314.399C498.253 323.997 488.377 347.175 494.549 365.477C494.549 365.477 486.401 366.865 476.248 380.198C466.124 393.531 435.107 380.198 435.107 380.198L443.471 340.447L433.718 302.671C433.718 302.671 427.422 283.259 440.416 279.061Z" fill="#1DC8EF"/>
<path d="M457.823 290.819C457.823 290.819 448.842 274.833 434.182 282.919C434.182 282.919 428.226 292.393 436.836 304.029C445.447 315.664 471.341 342.453 471.341 342.453L481.063 349.798C481.063 349.798 491.68 356.989 500.785 341.835C509.889 326.651 526.956 294.06 526.956 294.06L535.568 282.95C535.568 282.95 537.079 277.271 536.586 274.493C536.092 271.715 533.808 270.08 533.808 270.08L529.641 279.555C525.598 282.332 523.809 281.437 523.964 280.048C524.118 278.721 525.259 275.141 525.259 275.141L521.062 279.647L520.815 288.628L489.581 325.91L457.823 290.819Z" fill="#9C7ACD"/>
<path d="M455.756 259.618C455.015 261.377 452.638 265.605 452.361 267.272C452.361 267.272 462.916 267.241 464.768 264.556C465.508 263.445 465.694 261.84 465.138 260.544C463.564 257.642 457.052 256.531 455.756 259.618Z" fill="#511B7C"/>
<path d="M437.208 252.118C439.121 249.31 439.523 245.73 439.461 242.335C439.399 238.94 438.998 235.514 439.492 232.15C439.986 228.786 441.621 225.36 444.646 223.786C447.64 222.212 452.084 223.261 453.226 226.471L452.578 228.971C450.263 232.397 449.985 236.81 450.078 240.946C450.17 245.081 450.603 249.31 449.461 253.291C448.566 256.439 446.652 259.34 443.936 261.161C441.22 262.982 437.671 263.63 434.554 262.642C431.437 261.624 428.381 258.908 428.381 255.297C431.467 256.686 435.294 254.927 437.208 252.118Z" fill="#40196D"/>
<path d="M477.113 229.619C476.928 229.558 476.742 229.496 476.557 229.434C473.872 228.663 470.693 229.218 468.564 230.7C466.095 232.428 464.675 235.298 462.206 236.903C460.786 237.829 458.935 238.014 457.391 237.428C455.817 236.841 454.336 235.175 454.089 233.385C452.484 233.94 450.941 234.527 449.398 235.144L449.645 249.804C449.768 257.55 456.126 263.723 463.873 263.599C471.619 263.476 477.792 257.118 477.668 249.372L477.452 236.965L477.391 232.119C477.36 231.255 477.267 230.422 477.113 229.619Z" fill="#9C7ACD"/>
<path d="M477.113 229.619C477.267 230.422 477.36 231.255 477.391 232.119L477.452 236.964C479.582 238.075 481.835 237.366 481.958 234.897C482.113 232.366 479.582 230.483 477.113 229.619Z" fill="#48D38A"/>
<path d="M454.089 233.415C454.336 235.205 455.817 236.841 457.391 237.458C458.965 238.045 460.817 237.859 462.206 236.934C464.675 235.298 466.095 232.458 468.564 230.73C470.693 229.249 473.872 228.662 476.557 229.465C476.742 229.526 476.928 229.588 477.113 229.65C475.847 223.138 470.045 218.231 463.163 218.354C455.416 218.478 449.243 224.835 449.367 232.582L449.398 235.205C450.941 234.526 452.515 233.94 454.089 233.415C454.089 233.415 454.089 233.384 454.089 233.415Z" fill="#48D38A"/>
<path d="M454.09 233.724C454.121 233.724 454.121 233.724 454.09 233.724C454.306 233.724 454.43 233.539 454.43 233.353C454.183 230.175 454.615 227.119 455.726 224.249C456.683 221.718 459.028 219.589 461.837 218.694C462.022 218.632 462.114 218.447 462.053 218.262C461.991 218.076 461.806 217.984 461.621 218.046C458.627 219.002 456.127 221.286 455.078 224.002C453.936 226.965 453.504 230.113 453.751 233.384C453.781 233.6 453.936 233.724 454.09 233.724Z" fill="#40196D"/>
<path d="M454.089 233.755C454.12 233.755 454.151 233.755 454.212 233.724C460.262 231.656 466.743 230.175 473.008 229.465C473.193 229.434 473.317 229.28 473.317 229.095C473.286 228.909 473.131 228.786 472.946 228.786C466.65 229.496 460.107 230.977 453.996 233.076C453.811 233.138 453.719 233.323 453.78 233.508C453.842 233.662 453.966 233.755 454.089 233.755Z" fill="#40196D"/>
<path d="M450.633 248.939C448.596 248.97 446.961 247.365 446.93 245.328L446.868 241.624C446.837 239.587 448.442 237.952 450.479 237.921C452.516 237.89 454.152 239.495 454.183 241.532L454.213 242.982L450.633 248.939Z" fill="#9C7ACD"/>
<path d="M450.57 249.279C450.6 249.279 450.6 249.279 450.631 249.279C450.817 249.279 450.971 249.124 450.971 248.939C450.971 248.754 450.786 248.6 450.631 248.6C450.6 248.6 450.6 248.6 450.57 248.6C448.749 248.6 447.267 247.149 447.236 245.328L447.175 241.625C447.175 240.73 447.483 239.897 448.101 239.248C448.718 238.6 449.551 238.261 450.446 238.23C451.341 238.199 452.174 238.539 452.823 239.156C453.471 239.773 453.81 240.606 453.841 241.501L453.872 242.952C453.872 243.137 454.026 243.291 454.211 243.291C454.397 243.291 454.551 243.137 454.551 242.952L454.52 241.501C454.489 240.421 454.057 239.434 453.316 238.693C452.545 237.952 451.557 237.551 450.477 237.551C449.397 237.582 448.409 238.014 447.669 238.755C446.928 239.526 446.527 240.545 446.527 241.594L446.588 245.297C446.619 247.52 448.409 249.279 450.57 249.279Z" fill="#40196D"/>
<path d="M468.502 248.661C468.687 248.661 468.842 248.507 468.842 248.322L468.718 241.192C468.718 241.007 468.564 240.853 468.379 240.853C468.193 240.853 468.039 241.007 468.039 241.192L468.163 248.322C468.163 248.538 468.317 248.661 468.502 248.661Z" fill="#40196D"/>
<path d="M463.069 243.167C463.254 243.167 463.409 243.013 463.409 242.828L463.378 241.285C463.378 241.099 463.223 240.945 463.038 240.945C462.853 240.945 462.699 241.099 462.699 241.285L462.73 242.828C462.73 243.013 462.884 243.167 463.069 243.167Z" fill="#40196D"/>
<path d="M473.75 242.983C473.935 242.983 474.089 242.828 474.089 242.643L474.058 241.1C474.058 240.915 473.904 240.76 473.719 240.76C473.534 240.76 473.379 240.915 473.379 241.1L473.41 242.643C473.41 242.859 473.564 242.983 473.75 242.983Z" fill="#40196D"/>
<path d="M454.089 233.415C454.151 233.94 454.336 234.464 454.583 234.927V242.519H454.182L454.151 242.149C454.12 240.637 453.379 239.186 452.114 238.415C451.064 237.767 450.231 237.859 449.429 238.075L449.398 235.143C450.941 234.526 452.515 233.94 454.089 233.415Z" fill="#40196D"/>
<path d="M479.397 237.798C479.952 237.798 480.446 237.674 480.909 237.427C481.742 236.934 482.267 236.039 482.329 234.897C482.483 232.119 479.674 230.144 477.236 229.28C477.051 229.218 476.866 229.311 476.804 229.496C476.742 229.681 476.835 229.866 477.02 229.928C479.242 230.699 481.773 232.489 481.65 234.866C481.588 235.792 481.218 236.471 480.569 236.841C479.798 237.273 478.687 237.211 477.637 236.656C477.483 236.563 477.267 236.625 477.175 236.81C477.082 236.965 477.144 237.181 477.329 237.273C478.008 237.613 478.718 237.798 479.397 237.798Z" fill="#40196D"/>
<path d="M477.113 229.959C477.267 229.959 477.391 229.866 477.421 229.743C477.483 229.557 477.391 229.372 477.205 229.311C477.02 229.249 476.835 229.187 476.65 229.125C475.477 228.786 474.181 228.693 472.854 228.817C472.668 228.848 472.545 229.002 472.545 229.187C472.545 229.372 472.73 229.496 472.915 229.496C474.15 229.372 475.354 229.465 476.434 229.773C476.619 229.835 476.804 229.897 476.959 229.959C477.051 229.959 477.082 229.959 477.113 229.959Z" fill="#40196D"/>
<path d="M456.248 253.908L457.792 255.451C458.964 256.624 460.878 256.624 462.051 255.451L462.205 255.297C463.131 254.371 463.131 252.89 462.205 251.964L459.736 249.495C458.81 248.569 457.329 248.569 456.403 249.495L456.248 249.649C455.076 250.822 455.076 252.735 456.248 253.908Z" fill="white"/>
<path d="M468.563 230.699C470.692 229.218 473.871 228.632 476.556 229.434C476.742 229.496 476.927 229.557 477.112 229.619C477.266 230.422 477.359 231.255 477.39 232.119L477.451 236.903C473.439 236.378 469.767 234.742 466.773 232.304C467.328 231.718 467.915 231.162 468.563 230.699Z" fill="#40196D"/>
<path d="M593.763 453.572L624.558 434.422L622.928 431.801L592.133 450.952L593.763 453.572Z" fill="#40196D"/>
<path d="M588.219 443.219C588.775 445.04 589.577 446.83 590.627 448.497L592.139 450.935L622.909 431.8C621.675 429.825 619.36 428.807 617.076 429.27L601.923 431.985L602.2 428.436C602.324 426.862 600.966 425.597 599.392 425.813C598.342 425.967 597.602 426.924 597.725 428.004C598.651 434.701 594.639 441.09 588.219 443.219Z" fill="#48D38A"/>
<path d="M596.552 435.782L611.058 439.177L604.515 443.251L592.941 440.566C594.485 439.239 595.688 437.603 596.552 435.782Z" fill="white"/>
<path d="M597.788 427.973C598.652 434.671 594.671 441.059 588.251 443.189L569.301 417.758L586.214 407.234L597.788 427.973Z" fill="#9C7ACD"/>
<path d="M473.997 366.896C473.997 366.896 489.984 353.564 492.206 353.564C494.428 353.564 554.549 353.564 554.549 353.564C554.549 353.564 565.876 351.218 574.178 369.119C582.48 387.019 596.924 424.671 596.924 424.671C596.924 424.671 592.294 431.708 583.035 435.844C583.035 435.844 580.474 438.714 572.357 427.85C564.209 416.987 544.518 384.766 544.518 384.766C544.518 384.766 497.113 423.128 481.712 422.85C396.993 421.276 463.102 382.698 463.102 382.698L473.997 366.896Z" fill="#511B7C"/>
<path d="M477.822 422.542C495.075 427.418 535.413 385.136 535.413 385.136C535.413 385.136 550.721 379.426 553.56 391.895C556.4 404.364 562.109 455.287 559.98 480.934L538.962 483.434C534.271 477.292 533.962 470.626 533.962 470.626L534.271 454.299C534.271 454.299 524.395 433.652 525.166 414.456C495.6 424.671 483.686 423.622 483.686 423.622C483.686 423.622 472.946 421.184 477.822 422.542Z" fill="#42156D"/>
<path d="M432.918 270.882C432.918 270.882 424.924 308.257 434.8 321.096C444.677 333.935 465.54 343.996 480.354 344.49C497.501 344.49 503.501 364.5 503.501 364.5C503.501 364.5 507.001 389.186 490.354 395.5C476.033 400.932 480.354 417.11 480.354 417.11C481.681 423.807 490.354 424.301 490.354 424.301C490.354 424.301 401.407 438.652 387.549 326.497C387.549 326.497 392.642 284.308 402.024 272.95C411.406 261.562 427.486 246.655 432.918 270.882Z" fill="#FFC83E"/>
<path d="M524.889 281.283L529.118 265.481L538.84 263.198" stroke="#40196D" stroke-miterlimit="10"/>
<path d="M214.438 222.583C214.438 222.583 211.845 276.16 225.795 307.579L233.881 306.776L231.289 236.132L214.438 222.583Z" fill="#9C7ACD"/>
<path d="M273.387 304.8C275.115 290.202 264.221 277.178 249.561 276.191C233.481 277.456 222.988 279.987 224.13 296.035L224.654 314.769L227.031 375.26C227.617 384.951 235.395 392.666 245.086 393.129C255.116 393.654 263.82 386.278 264.992 376.34L273.387 304.8Z" fill="#40196D"/>
<path d="M262.77 292.301C262.77 292.178 262.647 292.023 262.493 291.962C262.369 291.962 262.215 292.085 262.153 292.239L256.104 364.612L256.69 364.551L262.77 292.301Z" fill="#9C7ACD"/>
<path d="M229.591 382.883L283.694 479.607L300.7 472.539L264.343 367.328C260.516 356.125 247.492 351.126 237.122 356.866C227.801 361.989 224.468 373.624 229.591 382.883Z" fill="#40196D"/>
<path d="M281.349 474.977L298.663 467.817C298.786 467.755 298.848 467.601 298.786 467.478C298.725 467.354 298.57 467.292 298.447 467.354L281.133 474.514C281.009 474.576 280.947 474.73 281.009 474.854C281.071 474.977 281.164 475.07 281.349 474.977Z" fill="#9C7ACD"/>
<path d="M249.592 356.31L293.109 469.916C293.17 470.039 293.355 470.102 293.479 470.102C293.602 470.04 293.664 469.854 293.602 469.761L250.147 356.188L249.592 356.31Z" fill="#9C7ACD"/>
<path d="M268.263 297.239C268.263 297.116 268.201 296.961 268.078 296.9C267.954 296.9 267.8 296.961 267.738 297.177" fill="#9C7ACD"/>
<path d="M222.122 481.952C221.999 481.952 221.845 482.014 221.783 482.229L222.122 481.952Z" fill="#9C7ACD"/>
<path d="M230.949 283.629L236.134 323.936H236.536L256.319 481.891H274.713L287.521 284.277L230.949 283.629Z" fill="#40196D"/>
<path d="M225.519 220.082C225.704 217.613 214.624 215.237 214.902 212.922C215.828 203.633 217.834 196.38 217.834 196.38C219.747 182.245 235.302 176.875 248.975 180.115L250.703 184.436C255.085 184.251 244.808 227.52 244.808 227.52L266.998 251.902C280.084 255.605 284.652 257.55 288.109 254.957C288.109 254.957 289.498 271.16 287.183 295.048L286.998 298.443L232.617 295.788L224.253 296.066" fill="#48D38A"/>
<path d="M271.071 175.27C271.596 181.041 267.368 186.165 261.566 186.751C255.794 187.276 250.609 182.955 250.023 177.184L253.541 162.308L266.967 161.444L271.071 175.27Z" fill="#9C7ACD"/>
<path d="M266.936 136.877C266.812 138.482 265.547 139.994 264.22 140.58C262.893 141.167 261.226 141.105 259.961 140.303C257.708 138.976 256.381 136.507 254.128 135.118C252.214 133.914 249.344 133.513 247.029 134.315C246.906 134.377 246.69 134.439 246.566 134.501C247.43 128.729 252.276 124.131 258.325 123.946C265.177 123.668 270.886 129.069 271.071 135.828L271.133 138.142C269.806 137.741 268.417 137.278 266.936 136.877C266.936 136.877 266.997 136.877 266.936 136.877Z" fill="#48D38A"/>
<path d="M286.872 266.099C286.934 266.099 286.934 266.099 286.996 266.099C287.119 266.037 287.181 265.821 287.119 265.698C287.119 265.636 287.057 265.574 286.996 265.574H286.934C286.872 265.574 286.872 265.574 286.811 265.574H286.718C286.656 265.574 286.656 265.636 286.656 265.698V265.76C286.656 265.821 286.656 265.883 286.656 265.883C286.656 266.007 286.811 266.099 286.872 266.099Z" fill="#40196D"/>
<path d="M235.332 239.495L221.475 212.891L209.068 219.342L222.925 245.945L235.332 239.495Z" fill="#41186D"/>
<path d="M220.753 215.474L211.609 220.231L223.644 243.366L232.789 238.608L220.753 215.474Z" fill="#F4E6FF"/>
<path d="M224.654 233.507C221.444 235.174 217.802 234.495 216.506 231.995C215.209 229.495 216.753 226.131 219.931 224.465C223.141 222.798 226.783 223.477 228.079 225.977C229.376 228.477 227.832 231.841 224.654 233.507Z" fill="#41186D"/>
<path d="M236.568 236.44L222.71 209.836L210.303 216.286L224.161 242.89L236.568 236.44Z" fill="#41186D"/>
<path d="M221.963 212.428L212.818 217.185L224.854 240.319L233.998 235.562L221.963 212.428Z" fill="#F4E6FF"/>
<path d="M225.857 230.452C222.647 232.119 219.005 231.44 217.709 228.94C216.413 226.44 217.956 223.076 221.135 221.41C224.345 219.743 227.987 220.422 229.283 222.922C230.61 225.422 229.067 228.786 225.857 230.452Z" fill="#41186D"/>
<path d="M237.77 233.384L223.913 206.781L211.506 213.231L225.363 239.835L237.77 233.384Z" fill="#41186D"/>
<path d="M223.199 209.367L214.055 214.124L226.091 237.259L235.235 232.502L223.199 209.367Z" fill="#F4E6FF"/>
<path d="M227.092 227.397C223.882 229.063 220.24 228.385 218.944 225.885C217.648 223.385 219.191 220.021 222.37 218.354C225.579 216.688 229.221 217.367 230.517 219.866C231.814 222.335 230.301 225.73 227.092 227.397Z" fill="#41186D"/>
<path d="M211.445 228.045C211.569 226.718 213.575 226.841 213.575 226.841L223.482 228.755L223.296 227.891C222.957 226.687 224.037 225.576 225.21 225.761L274.282 234.526L278.078 214.805L311.132 221.379C310.392 225.236 306.873 242.087 298.911 255.05C298.911 255.05 292.337 267.271 279.591 260.821L237.895 241.439C237.895 241.439 233.913 239.248 229.932 241.038C229.932 241.038 221.043 246.1 216.97 238.106C216.97 238.106 215.766 235.853 215.365 232.335L214.099 230.884L213.173 229.835C211.106 229.372 211.445 228.045 211.445 228.045Z" fill="#9C7ACD"/>
<path d="M276.504 237.211L236.537 227.366L230.549 217.737L228.883 181.535L250.456 175.548C250.518 181.319 254.777 185.732 260.548 185.732C266.381 185.67 271.042 180.948 271.042 175.115C271.042 175.115 303.571 182.522 310.145 199.806C310.145 199.806 314.99 213.323 311.873 225.02C311.873 225.02 311.688 225.823 311.534 226.347L281.535 217.737L276.504 237.211Z" fill="#48D38A"/>
<path d="M246.566 134.562C246.443 135.303 246.443 136.013 246.443 136.753L246.566 141.012C244.776 142.062 242.708 141.537 242.523 139.407C242.307 137.154 244.437 135.426 246.566 134.562Z" fill="#48D38A"/>
<path d="M256.998 167.74C255.393 167.801 253.819 167.554 252.43 166.999L253.572 162.277L266.997 161.413L267.121 161.876C264.961 165.301 261.288 167.616 256.998 167.74Z" fill="#40196D"/>
<path d="M246.566 134.562C246.69 134.5 246.906 134.438 247.029 134.377C249.344 133.574 252.152 133.914 254.128 135.179C256.381 136.568 257.708 139.037 259.961 140.364C261.226 141.105 262.893 141.228 264.22 140.642C265.547 140.055 266.812 138.512 266.936 136.938C268.325 137.34 269.806 137.803 271.133 138.265L271.596 152.617C271.874 159.375 266.473 165.085 259.714 165.363C252.955 165.641 247.245 160.24 246.967 153.481L246.628 141.074L246.504 136.815C246.443 136.012 246.504 135.21 246.566 134.562Z" fill="#9C7ACD"/>
<path d="M267.089 137.154C267.212 137.093 267.274 137.031 267.274 136.877C267.336 133.945 266.811 131.229 265.669 128.698C264.682 126.383 262.336 124.439 259.682 123.791C259.558 123.729 259.342 123.853 259.342 123.976C259.281 124.1 259.404 124.316 259.528 124.316C262.058 124.995 264.188 126.785 265.176 128.883C266.225 131.352 266.78 134.007 266.688 136.846C266.688 136.969 266.811 137.124 266.966 137.124C266.996 137.154 266.996 137.154 267.089 137.154Z" fill="#40196D"/>
<path d="M267.09 137.155C267.152 137.155 267.214 137.093 267.275 136.969C267.337 136.846 267.214 136.63 267.09 136.63C261.658 135.025 255.794 134.037 250.301 133.698C250.177 133.698 250.023 133.821 250.023 133.976C250.023 134.099 250.146 134.253 250.301 134.253C255.825 134.593 261.596 135.581 267.028 137.185C266.936 137.155 266.998 137.155 267.09 137.155Z" fill="#40196D"/>
<path d="M270.732 150.364C272.522 150.302 273.911 148.851 273.849 147.03L273.726 143.79C273.664 142 272.213 140.611 270.392 140.673C268.602 140.734 267.214 142.185 267.275 144.006L267.337 145.271L270.732 150.364Z" fill="#9C7ACD"/>
<path d="M264.282 140.519C265.609 139.932 266.874 138.389 266.997 136.815C268.386 137.216 269.868 137.679 271.195 138.142L271.257 140.735C270.516 140.55 269.806 140.55 268.942 141.136C267.893 141.877 267.275 143.204 267.275 144.531L267.337 145.58L266.01 145.642C265.022 145.704 264.158 144.901 264.096 143.852L263.973 140.611C264.096 140.611 264.158 140.611 264.282 140.519Z" fill="#40196D"/>
<path d="M255.053 151.475C255.176 151.413 255.238 151.352 255.238 151.197L254.96 143.574C254.96 143.451 254.836 143.296 254.682 143.296C254.559 143.296 254.404 143.42 254.404 143.574L254.682 151.197C254.682 151.321 254.806 151.475 254.96 151.475C255.052 151.475 255.053 151.475 255.053 151.475Z" fill="#40196D"/>
<path d="M257.924 156.999C260.053 156.412 261.566 154.406 261.442 152.092C261.442 151.968 261.319 151.814 261.164 151.814C261.041 151.814 260.887 151.937 260.887 152.092C260.948 154.468 259.097 156.536 256.628 156.598C256.504 156.598 256.35 156.721 256.35 156.875C256.35 156.999 256.473 157.153 256.628 157.153C257.121 157.184 257.523 157.122 257.924 156.999Z" fill="#40196D"/>
<path d="M259.56 145.055C259.683 144.994 259.745 144.932 259.745 144.777L259.683 143.45C259.683 143.327 259.56 143.173 259.405 143.173C259.282 143.173 259.127 143.296 259.127 143.45L259.189 144.777C259.189 144.901 259.313 145.055 259.467 145.055C259.498 145.117 259.498 145.117 259.56 145.055Z" fill="#40196D"/>
<path d="M250.147 145.364C250.271 145.302 250.332 145.241 250.332 145.086L250.271 143.759C250.271 143.636 250.147 143.481 249.993 143.481C249.839 143.481 249.715 143.605 249.715 143.759L249.777 145.086C249.777 145.21 249.9 145.364 250.055 145.364C250.147 145.364 250.147 145.364 250.147 145.364Z" fill="#40196D"/>
<path d="M276.07 237.86C276.194 237.86 276.255 237.798 276.255 237.674L283.23 213.108C283.292 212.984 283.169 212.768 283.045 212.768C282.922 212.706 282.706 212.83 282.706 212.953L275.731 237.52C275.669 237.643 275.792 237.86 275.916 237.86C275.978 237.86 276.07 237.86 276.07 237.86Z" fill="#40196D"/>
<path d="M280.825 239.31C280.949 239.31 281.01 239.249 281.01 239.125C281.072 239.002 280.949 238.847 280.825 238.847L234.191 226.718C234.068 226.657 233.913 226.78 233.913 226.904C233.852 227.027 233.975 227.181 234.099 227.181L280.733 239.31C280.763 239.31 280.763 239.31 280.825 239.31Z" fill="#40196D"/>
<path d="M232.337 242.458L230.486 240.791C234.282 239.464 237.862 241.377 237.862 241.377L281.101 260.574C282.891 261.438 284.558 261.963 286.07 262.179C284.218 262.241 282.089 261.994 279.774 261.191" fill="#40196D"/>
<path d="M263.82 140.981C264.005 140.919 264.221 140.858 264.406 140.796C265.918 140.117 267.122 138.481 267.276 136.876C267.276 136.753 267.153 136.599 266.999 136.537C266.875 136.537 266.721 136.66 266.659 136.815C266.536 138.203 265.455 139.685 264.128 140.271C262.863 140.796 261.351 140.734 260.147 139.994C259.005 139.315 258.141 138.389 257.215 137.401C256.351 136.475 255.425 135.488 254.283 134.809C252.215 133.543 249.314 133.204 246.968 134.006C246.845 134.068 246.629 134.13 246.505 134.191C246.382 134.253 246.32 134.377 246.382 134.593C246.444 134.716 246.567 134.778 246.783 134.716C246.907 134.654 247.123 134.593 247.246 134.531C249.437 133.79 252.153 134.068 254.098 135.272C255.147 135.951 256.104 136.876 256.968 137.802C257.894 138.79 258.82 139.808 260.023 140.456C261.042 141.259 262.493 141.382 263.82 140.981Z" fill="#40196D"/>
<path d="M245.764 141.66C246.103 141.599 246.443 141.383 246.751 141.259C246.875 141.198 246.937 140.981 246.813 140.858C246.751 140.735 246.535 140.673 246.412 140.796C245.486 141.321 244.56 141.475 243.819 141.074C243.233 140.796 242.894 140.21 242.77 139.346C242.585 137.216 244.684 135.55 246.628 134.778C246.751 134.716 246.813 134.593 246.751 134.377C246.69 134.253 246.566 134.192 246.35 134.253C244.221 135.118 241.906 136.969 242.153 139.377C242.276 140.364 242.739 141.105 243.48 141.506C244.252 141.846 245.023 141.938 245.764 141.66Z" fill="#40196D"/>
<path d="M253.665 234.094L243.295 242.581C237.986 237.613 237.77 236.131 233.943 235.421C231.628 235.02 227.956 234.897 221.135 234.434C223.511 233.168 225.919 231.965 227.709 230.915C231.567 228.724 232.153 226.934 232.03 224.403C231.968 223.601 231.844 222.891 231.567 222.15H231.628L227.122 213.663C230.826 214.867 235.209 216.719 236.289 219.496C237.492 222.613 238.017 225.946 240.332 228.662C242.647 231.347 248.541 233.168 253.665 234.094Z" fill="#9C7ACD"/>
<path d="M215.426 232.428L223.729 233.107" stroke="#231F20" stroke-width="0.5" stroke-miterlimit="10" stroke-linecap="round" stroke-linejoin="round"/>
<path d="M216.352 234.804L224.654 235.483" stroke="#231F20" stroke-width="0.5" stroke-miterlimit="10" stroke-linecap="round" stroke-linejoin="round"/>
<path d="M217.34 237.458L225.179 238.045" stroke="#231F20" stroke-width="0.5" stroke-miterlimit="10" stroke-linecap="round" stroke-linejoin="round"/>
<path d="M219.592 240.39L225.178 240.668" stroke="#231F20" stroke-width="0.5" stroke-miterlimit="10" stroke-linecap="round" stroke-linejoin="round"/>
<path d="M214.963 231.903C214.963 231.903 217.678 243.662 225.178 242.581L230.487 240.791" stroke="#40196D" stroke-width="0.5" stroke-miterlimit="10" stroke-linecap="round" stroke-linejoin="round"/>
<path d="M255.3 485.409C255.424 485.409 255.3 485.532 255.3 485.409L238.85 332.978C238.85 332.855 238.727 332.793 238.573 332.793C238.449 332.793 238.387 332.917 238.387 333.071L255.3 485.409C255.3 485.532 255.146 485.471 255.3 485.409Z" fill="#9C7ACD"/>
<path d="M490.353 498.464C488.717 498.464 487.174 498.464 485.538 498.464C485.538 495.995 485.538 493.495 485.538 490.964C465.539 490.964 445.632 490.964 425.633 490.964C425.633 493.433 425.633 495.933 425.633 498.433C423.997 498.433 422.423 498.433 420.788 498.433C420.788 495.964 420.788 493.464 420.788 490.902C416.313 490.902 411.961 490.902 407.547 490.902C407.547 461.243 407.547 431.708 407.547 402.11C439.583 402.11 471.588 402.11 503.655 402.11C503.655 431.677 503.655 461.212 503.655 490.871C499.272 490.871 494.859 490.871 490.384 490.871C490.353 493.464 490.353 495.933 490.353 498.464ZM424.491 446.46C424.43 454.7 431.158 461.552 439.367 461.613C447.824 461.675 454.675 454.978 454.706 446.583C454.737 438.25 447.947 431.399 439.583 431.399C431.312 431.43 424.553 438.158 424.491 446.46ZM464.706 436.46C464.706 437.911 464.706 439.331 464.706 440.781C466.156 440.781 467.545 440.781 468.996 440.781C468.996 439.331 468.996 437.911 468.996 436.46C467.545 436.46 466.156 436.46 464.706 436.46ZM477.946 440.781C477.946 439.3 477.946 437.88 477.946 436.491C476.465 436.491 475.045 436.491 473.656 436.491C473.656 437.973 473.656 439.392 473.656 440.781C475.107 440.781 476.495 440.781 477.946 440.781ZM482.545 440.75C483.995 440.75 485.415 440.75 486.865 440.75C486.865 439.3 486.865 437.88 486.865 436.46C485.384 436.46 483.964 436.46 482.545 436.46C482.545 437.942 482.545 439.331 482.545 440.75ZM468.965 448.713C468.965 447.231 468.965 445.812 468.965 444.392C467.514 444.392 466.125 444.392 464.706 444.392C464.706 445.874 464.706 447.293 464.706 448.713C466.156 448.713 467.545 448.713 468.965 448.713ZM473.625 448.682C475.107 448.682 476.526 448.682 477.915 448.682C477.915 447.201 477.915 445.781 477.915 444.361C476.465 444.361 475.045 444.361 473.625 444.361C473.625 445.812 473.625 447.231 473.625 448.682ZM482.545 448.682C484.057 448.682 485.477 448.682 486.865 448.682C486.865 447.201 486.865 445.781 486.865 444.361C485.384 444.361 483.964 444.361 482.545 444.361C482.545 445.843 482.545 447.231 482.545 448.682ZM468.996 456.614C468.996 455.163 468.996 453.743 468.996 452.262C467.545 452.262 466.125 452.262 464.706 452.262C464.706 453.743 464.706 455.163 464.706 456.614C466.156 456.614 467.545 456.614 468.996 456.614ZM473.625 452.262C473.625 453.774 473.625 455.194 473.625 456.583C475.107 456.583 476.526 456.583 477.915 456.583C477.915 455.101 477.915 453.682 477.915 452.262C476.465 452.262 475.076 452.262 473.625 452.262ZM486.865 456.614C486.865 455.101 486.865 453.682 486.865 452.293C485.384 452.293 483.964 452.293 482.575 452.293C482.575 453.774 482.575 455.194 482.575 456.614C484.026 456.614 485.415 456.614 486.865 456.614Z" fill="#9C7ACD"/>
<path d="M424.49 446.46C424.552 438.158 431.28 431.43 439.582 431.43C447.946 431.43 454.736 438.251 454.705 446.614C454.674 455.009 447.823 461.706 439.366 461.645C431.157 461.552 424.459 454.7 424.49 446.46Z" fill="#3D0077"/>
<path d="M464.705 436.461C466.125 436.461 467.544 436.461 468.995 436.461C468.995 437.911 468.995 439.3 468.995 440.782C467.575 440.782 466.155 440.782 464.705 440.782C464.705 439.331 464.705 437.911 464.705 436.461Z" fill="#3D0077"/>
<path d="M477.946 440.781C476.495 440.781 475.107 440.781 473.656 440.781C473.656 439.362 473.656 437.942 473.656 436.491C475.076 436.491 476.495 436.491 477.946 436.491C477.946 437.88 477.946 439.269 477.946 440.781Z" fill="#3D0077"/>
<path d="M482.545 440.751C482.545 439.331 482.545 437.911 482.545 436.461C483.964 436.461 485.384 436.461 486.866 436.461C486.866 437.88 486.866 439.3 486.866 440.751C485.446 440.751 484.026 440.751 482.545 440.751Z" fill="#3D0077"/>
<path d="M468.964 448.713C467.544 448.713 466.155 448.713 464.705 448.713C464.705 447.262 464.705 445.873 464.705 444.392C466.125 444.392 467.513 444.392 468.964 444.392C468.964 445.781 468.964 447.231 468.964 448.713Z" fill="#3D0077"/>
<path d="M473.625 448.682C473.625 447.232 473.625 445.812 473.625 444.361C475.076 444.361 476.465 444.361 477.915 444.361C477.915 445.781 477.915 447.201 477.915 448.682C476.526 448.682 475.107 448.682 473.625 448.682Z" fill="#3D0077"/>
<path d="M482.545 448.682C482.545 447.232 482.545 445.843 482.545 444.361C483.995 444.361 485.384 444.361 486.866 444.361C486.866 445.781 486.866 447.201 486.866 448.682C485.477 448.682 484.057 448.682 482.545 448.682Z" fill="#3D0077"/>
<path d="M468.995 456.614C467.544 456.614 466.155 456.614 464.705 456.614C464.705 455.164 464.705 453.744 464.705 452.263C466.125 452.263 467.544 452.263 468.995 452.263C468.995 453.744 468.995 455.164 468.995 456.614Z" fill="#3D0077"/>
<path d="M473.625 452.263C475.045 452.263 476.465 452.263 477.915 452.263C477.915 453.682 477.915 455.102 477.915 456.583C476.526 456.583 475.107 456.583 473.625 456.583C473.625 455.195 473.625 453.775 473.625 452.263Z" fill="#3D0077"/>
<path d="M486.864 456.614C485.445 456.614 484.025 456.614 482.574 456.614C482.574 455.194 482.574 453.774 482.574 452.293C483.963 452.293 485.383 452.293 486.864 452.293C486.864 453.682 486.864 455.101 486.864 456.614Z" fill="#3D0077"/>
<path d="M396.591 499.42H430.047C436.373 499.42 439.676 491.889 435.386 487.229L421.621 472.292L401.93 450.965C399.06 447.848 394.122 447.848 391.252 450.965L371.561 472.292L357.796 487.229C353.506 491.889 356.809 499.42 363.136 499.42H396.591Z" fill="#FFC83E"/>
<path d="M396.314 438.436L410.789 436.43L404.647 445.349L398.506 454.268L390.173 447.386L381.809 440.473L396.314 438.436Z" fill="#FFC83E"/>
<path d="M402.579 447.818H390.604V451.707H402.579V447.818Z" fill="#5F36A8"/>
<path d="M396.529 450.966H393.752V460.194H396.529V450.966Z" fill="#5F36A8"/>
<path d="M399.4 477.662H401.313V488.927H399.801L393.721 481.026V488.927H391.838V477.662H393.351L399.4 485.532V477.662Z" fill="#5F36A8"/>
<path d="M403.196 480.378H389.986V481.952H403.196V480.378Z" fill="#5F36A8"/>
<path d="M403.196 484.606H389.986V486.18H403.196V484.606Z" fill="#5F36A8"/>
<path d="M425.448 301.899C424.244 303.72 422.917 304.862 421.683 305.973C420.541 306.992 420.633 307.702 421.744 308.627C423.041 309.677 424.275 310.819 425.324 312.146C423.843 312.393 423.349 311.282 422.639 310.572C419.831 307.856 419.893 307.856 417.115 310.603C416.405 311.282 415.88 312.177 414.893 312.547C414.769 312.424 414.615 312.3 414.492 312.177C415.541 311.127 416.559 310.078 417.609 309.06C419.337 307.331 419.306 307.331 417.578 305.541C416.59 304.492 415.325 303.659 414.461 301.93C415.973 302.517 416.621 303.535 417.424 304.307C419.923 306.745 419.862 306.745 422.423 304.245C423.195 303.473 423.812 302.393 425.448 301.899Z" fill="#FDC944"/>
<path d="M390.262 66.8356V1" stroke="black" stroke-width="2" stroke-miterlimit="10"/>
<path d="M395.568 71.1569H384.951V66.5583C384.951 64.7066 386.464 63.1943 388.315 63.1943H392.204C394.056 63.1943 395.568 64.7066 395.568 66.5583V71.1569Z" fill="#F26533" stroke="black" stroke-width="2" stroke-miterlimit="10"/>
<path d="M399.365 100.521C400.179 95.5077 396.774 90.7835 391.76 89.9698C386.746 89.156 382.022 92.561 381.208 97.5748C380.394 102.588 383.799 107.313 388.813 108.126C393.827 108.94 398.551 105.535 399.365 100.521Z" fill="#FFC83E"/>
<path d="M422.913 99.0559C422.666 81.2482 408.13 66.8662 390.26 66.8662C372.39 66.8662 357.854 81.2482 357.607 99.0559H422.913Z" fill="#40196D"/>
<path d="M50.9628 334.193H162.07C163.705 334.193 165.032 332.866 165.032 331.231V252.963C165.032 251.327 163.705 250 162.07 250H50.9628C49.3271 250 48 251.327 48 252.963V331.231C48 332.866 49.3271 334.193 50.9628 334.193Z" fill="#48D38A"/>
<path d="M91.4184 302.547H110.523L107.035 355.816H126.14C127.744 355.816 129.041 357.113 129.041 358.717H81.0793C77.5917 358.717 75.0918 355.323 76.1103 351.989L91.4184 302.547Z" fill="#EAECEB" stroke="black" stroke-width="2" stroke-miterlimit="10"/>
<path d="M291.348 356.31C294.86 356.31 297.706 353.464 297.706 349.952C297.706 346.441 294.86 343.595 291.348 343.595C287.837 343.595 284.99 346.441 284.99 349.952C284.99 353.464 287.837 356.31 291.348 356.31Z" stroke="black" stroke-width="2" stroke-miterlimit="10"/>
<path d="M274.234 359.003H291.332V339.096H274.234V359.003Z" fill="#FFC83E"/>
<path d="M286.903 334.829C286.039 333.78 285.854 332.237 286.409 331.003C286.625 330.509 286.965 330.046 287.273 329.552C288.415 327.546 288.415 324.954 287.242 322.979" stroke="black" stroke-width="2" stroke-miterlimit="10" stroke-linecap="round"/>
<path d="M283.323 334.799C282.274 333.04 281.193 330.941 281.934 329.027C282.243 328.256 282.798 327.608 283.169 326.836C283.878 325.386 283.786 323.565 282.922 322.207" stroke="black" stroke-width="2" stroke-miterlimit="10" stroke-linecap="round"/>
<path d="M279.62 334.861C279.003 334.058 278.478 333.194 278.015 332.268C277.738 331.713 277.46 331.095 277.46 330.447C277.429 328.966 278.756 327.824 279.281 326.435C279.836 324.985 279.466 323.256 278.386 322.176" stroke="black" stroke-width="2" stroke-miterlimit="10" stroke-linecap="round"/>
<path d="M4.63477 488.542H320.209V366.079H4.63477V488.542Z" fill="#3D0077"/>
<path d="M0.314453 366.092H324.531V358.994H0.314453V366.092Z" fill="#48D38A"/>
<path d="M305.568 494.18H312.728V488.532H305.568V494.18Z" fill="#D2D9DB" stroke="black" stroke-width="2" stroke-miterlimit="10"/>
<path d="M12.1152 494.18H19.2754V488.532H12.1152V494.18Z" fill="#D2D9DB" stroke="black" stroke-width="2" stroke-miterlimit="10"/>
<defs>
<linearGradient id="paint0_linear" x1="403.25" y1="97" x2="403.25" y2="496" gradientUnits="userSpaceOnUse">
<stop offset="0.614583" stop-color="#FFC83E"/>
<stop offset="1" stop-color="#FFC83E" stop-opacity="0"/>
</linearGradient>
</defs>
</svg>
